<svg data-v-423bf9ae="" xmlns="http://www.w3.org/2000/svg" viewBox="0 0 323 90" class="iconLeftSlogan"><!----><!----><!----><g data-v-423bf9ae="" id="402f6c83-100e-4e89-a601-b042a4d5afd8" fill="white" transform="matrix(3.6652415342028295,0,0,3.6652415342028295,99.63464870813007,-3.738546771815109)"><path d="M5.25 4.09L5.25 4.09L5.25 4.09Q5.07 4.09 4.82 4.16L4.82 4.16L4.82 4.16Q4.57 4.24 4.32 4.45L4.32 4.45L4.32 4.45Q4.06 4.66 3.81 5.03L3.81 5.03L3.81 5.03Q3.57 5.41 3.37 6.01L3.37 6.01L3.37 6.01Q3.18 6.60 3.06 7.46L3.06 7.46L3.06 7.46Q2.94 8.31 2.94 9.47L2.94 9.47L2.94 9.47Q2.94 10.58 3.06 11.40L3.06 11.40L3.06 11.40Q3.18 12.21 3.38 12.78L3.38 12.78L3.38 12.78Q3.58 13.35 3.84 13.71L3.84 13.71L3.84 13.71Q4.10 14.08 4.39 14.28L4.39 14.28L4.39 14.28Q4.68 14.48 4.96 14.55L4.96 14.55L4.96 14.55Q5.25 14.63 5.50 14.63L5.50 14.63L5.50 14.63Q5.77 14.63 6.04 14.56L6.04 14.56L6.04 14.56Q6.32 14.49 6.58 14.36L6.58 14.36L6.58 14.36Q6.84 14.23 7.09 14.05L7.09 14.05L7.09 14.05Q7.33 13.86 7.53 13.62L7.53 13.62L7.84 13.93L7.84 13.93Q7.64 14.18 7.35 14.45L7.35 14.45L7.35 14.45Q7.06 14.71 6.68 14.93L6.68 14.93L6.68 14.93Q6.30 15.14 5.83 15.28L5.83 15.28L5.83 15.28Q5.36 15.42 4.79 15.42L4.79 15.42L4.79 15.42Q3.89 15.42 3.12 15.07L3.12 15.07L3.12 15.07Q2.35 14.73 1.78 14.01L1.78 14.01L1.78 14.01Q1.21 13.29 0.89 12.16L0.89 12.16L0.89 12.16Q0.56 11.03 0.56 9.46L0.56 9.46L0.56 9.46Q0.56 7.98 0.90 6.87L0.90 6.87L0.90 6.87Q1.24 5.76 1.83 5.01L1.83 5.01L1.83 5.01Q2.42 4.26 3.21 3.88L3.21 3.88L3.21 3.88Q4.01 3.50 4.90 3.50L4.90 3.50L4.90 3.50Q5.50 3.50 5.98 3.61L5.98 3.61L5.98 3.61Q6.47 3.73 6.83 3.94L6.83 3.94L6.83 3.94Q7.18 4.16 7.38 4.47L7.38 4.47L7.38 4.47Q7.57 4.79 7.57 5.20L7.57 5.20L7.57 5.20Q7.57 5.38 7.51 5.58L7.51 5.58L7.51 5.58Q7.45 5.78 7.32 5.95L7.32 5.95L7.32 5.95Q7.20 6.12 7.01 6.22L7.01 6.22L7.01 6.22Q6.83 6.33 6.58 6.33L6.58 6.33L6.58 6.33Q6.36 6.33 6.24 6.23L6.24 6.23L6.24 6.23Q6.13 6.14 6.07 5.98L6.07 5.98L6.07 5.98Q6.01 5.82 5.99 5.62L5.99 5.62L5.99 5.62Q5.97 5.42 5.97 5.21L5.97 5.21L5.97 5.21Q5.96 5.00 5.94 4.80L5.94 4.80L5.94 4.80Q5.91 4.59 5.84 4.44L5.84 4.44L5.84 4.44Q5.77 4.28 5.63 4.18L5.63 4.18L5.63 4.18Q5.50 4.09 5.25 4.09ZM8.78 16.91L8.78 16.91L8.78 16.91Q9.28 16.91 9.71 16.65L9.71 16.65L9.71 16.65Q10.14 16.39 10.53 15.92L10.53 15.92L10.53 15.92Q10.92 15.46 11.26 14.83L11.26 14.83L11.26 14.83Q11.61 14.19 11.92 13.45L11.92 13.45L11.92 13.45Q11.17 10.99 10.40 9.04L10.40 9.04L10.40 9.04Q9.64 7.10 8.91 5.74L8.91 5.74L8.91 5.74Q8.54 5.02 8.13 4.65L8.13 4.65L8.13 4.65Q7.72 4.29 7.36 4.29L7.36 4.29L7.36 4.29Q7.14 4.29 6.97 4.38L6.97 4.38L6.97 4.38Q6.80 4.47 6.68 4.58L6.68 4.58L6.51 4.37L6.51 4.37Q6.65 4.22 6.86 4.07L6.86 4.07L6.86 4.07Q7.08 3.92 7.36 3.79L7.36 3.79L7.36 3.79Q7.64 3.66 7.99 3.58L7.99 3.58L7.99 3.58Q8.34 3.50 8.76 3.50L8.76 3.50L8.76 3.50Q8.98 3.50 9.24 3.54L9.24 3.54L9.24 3.54Q9.50 3.58 9.77 3.69L9.77 3.69L9.77 3.69Q10.04 3.80 10.30 4.00L10.30 4.00L10.30 4.00Q10.57 4.20 10.81 4.54L10.81 4.54L10.81 4.54Q11.33 5.28 11.92 6.62L11.92 6.62L11.92 6.62Q12.51 7.96 13.17 9.88L13.17 9.88L13.17 9.88Q13.38 9.25 13.59 8.62L13.59 8.62L13.59 8.62Q13.79 7.98 14.01 7.39L14.01 7.39L14.01 7.39Q14.22 6.79 14.43 6.23L14.43 6.23L14.43 6.23Q14.65 5.68 14.88 5.20L14.88 5.20L14.88 5.20Q15.12 4.68 15.37 4.29L15.37 4.29L15.37 4.29Q15.62 3.90 15.92 3.63L15.92 3.63L15.92 3.63Q16.21 3.36 16.58 3.22L16.58 3.22L16.58 3.22Q16.95 3.08 17.43 3.08L17.43 3.08L17.43 3.08Q17.79 3.08 18.01 3.24L18.01 3.24L18.01 3.24Q18.24 3.39 18.24 3.70L18.24 3.70L18.24 3.70Q18.24 3.97 18.15 4.15L18.15 4.15L18.15 4.15Q18.06 4.33 17.90 4.33L17.90 4.33L17.90 4.33Q17.77 4.33 17.70 4.23L17.70 4.23L17.70 4.23Q17.63 4.13 17.56 4.01L17.56 4.01L17.56 4.01Q17.49 3.90 17.39 3.80L17.39 3.80L17.39 3.80Q17.29 3.70 17.10 3.70L17.10 3.70L17.10 3.70Q16.69 3.70 16.33 4.08L16.33 4.08L16.33 4.08Q15.98 4.46 15.67 5.12L15.67 5.12L15.67 5.12Q15.36 5.78 15.07 6.65L15.07 6.65L15.07 6.65Q14.78 7.53 14.49 8.52L14.49 8.52L14.49 8.52Q14.19 9.50 13.87 10.54L13.87 10.54L13.87 10.54Q13.55 11.59 13.18 12.57L13.18 12.57L13.18 12.57Q12.81 13.56 12.37 14.43L12.37 14.43L12.37 14.43Q11.93 15.31 11.39 15.97L11.39 15.97L11.39 15.97Q10.85 16.63 10.19 17.01L10.19 17.01L10.19 17.01Q9.54 17.39 8.74 17.39L8.74 17.39L8.74 17.39Q8.39 17.39 8.06 17.33L8.06 17.33L8.06 17.33Q7.74 17.27 7.48 17.17L7.48 17.17L7.48 17.17Q7.23 17.07 7.06 16.93L7.06 16.93L7.06 16.93Q6.89 16.78 6.87 16.62L6.87 16.62L6.87 16.62Q6.86 16.50 6.88 16.37L6.88 16.37L6.88 16.37Q6.90 16.24 6.96 16.14L6.96 16.14L6.96 16.14Q7.01 16.04 7.11 15.97L7.11 15.97L7.11 15.97Q7.20 15.90 7.32 15.90L7.32 15.90L7.32 15.90Q7.40 15.90 7.46 15.98L7.46 15.98L7.46 15.98Q7.53 16.05 7.60 16.16L7.60 16.16L7.60 16.16Q7.68 16.28 7.77 16.41L7.77 16.41L7.77 16.41Q7.86 16.54 8.00 16.65L8.00 16.65L8.00 16.65Q8.13 16.76 8.32 16.84L8.32 16.84L8.32 16.84Q8.51 16.91 8.78 16.91ZM21.72 4.72L21.72 12.82L21.72 12.82Q21.72 13.35 21.44 13.59L21.44 13.59L21.44 13.59Q21.16 13.83 20.60 13.83L20.60 13.83L20.60 13.83Q20.02 13.83 19.75 13.59L19.75 13.59L19.75 13.59Q19.48 13.35 19.48 12.82L19.48 12.82L19.48 4.65L19.48 4.65Q19.48 4.27 18.96 4.27L18.96 4.27L18.96 4.27Q18.58 4.27 18.19 4.39L18.19 4.39L18.19 4.39Q17.81 4.50 17.50 4.69L17.50 4.69L17.50 4.69Q17.19 4.89 16.99 5.16L16.99 5.16L16.99 5.16Q16.79 5.43 16.79 5.74L16.79 5.74L16.79 5.74Q16.79 5.96 16.85 6.09L16.85 6.09L16.85 6.09Q16.91 6.22 16.98 6.29L16.98 6.29L16.98 6.29Q17.06 6.35 17.13 6.37L17.13 6.37L17.13 6.37Q17.21 6.38 17.25 6.38L17.25 6.38L17.25 6.38Q17.42 6.38 17.53 6.33L17.53 6.33L17.53 6.33Q17.64 6.27 17.73 6.20L17.73 6.20L17.73 6.20Q17.81 6.14 17.89 6.08L17.89 6.08L17.89 6.08Q17.97 6.02 18.07 6.02L18.07 6.02L18.07 6.02Q18.16 6.02 18.25 6.06L18.25 6.06L18.25 6.06Q18.34 6.10 18.42 6.18L18.42 6.18L18.42 6.18Q18.50 6.26 18.55 6.40L18.55 6.40L18.55 6.40Q18.61 6.53 18.61 6.72L18.61 6.72L18.61 6.72Q18.61 6.99 18.50 7.19L18.50 7.19L18.50 7.19Q18.40 7.39 18.23 7.52L18.23 7.52L18.23 7.52Q18.06 7.66 17.85 7.72L17.85 7.72L17.85 7.72Q17.63 7.79 17.42 7.79L17.42 7.79L17.42 7.79Q17.09 7.79 16.83 7.67L16.83 7.67L16.83 7.67Q16.56 7.56 16.38 7.36L16.38 7.36L16.38 7.36Q16.19 7.16 16.10 6.90L16.10 6.90L16.10 6.90Q16.00 6.63 16.00 6.33L16.00 6.33L16.00 6.33Q16.00 5.76 16.21 5.33L16.21 5.33L16.21 5.33Q16.43 4.89 16.81 4.58L16.81 4.58L16.81 4.58Q17.20 4.27 17.74 4.06L17.74 4.06L17.74 4.06Q18.28 3.85 18.94 3.73L18.94 3.73L18.94 3.73Q19.59 3.60 20.34 3.55L20.34 3.55L20.34 3.55Q21.09 3.50 21.90 3.50L21.90 3.50L21.90 3.50Q23.85 3.50 24.86 4.25L24.86 4.25L24.86 4.25Q25.86 5.00 25.86 6.40L25.86 6.40L25.86 6.40Q25.86 7.08 25.68 7.61L25.68 7.61L25.68 7.61Q25.50 8.13 25.19 8.51L25.19 8.51L25.19 8.51Q24.89 8.89 24.49 9.13L24.49 9.13L24.49 9.13Q24.10 9.37 23.67 9.47L23.67 9.47L23.67 9.47Q23.25 9.57 22.82 9.55L22.82 9.55L22.82 9.55Q22.39 9.53 22.03 9.39L22.03 9.39L22.12 9.10L22.12 9.10Q22.63 9.26 22.97 9.11L22.97 9.11L22.97 9.11Q23.30 8.96 23.48 8.59L23.48 8.59L23.48 8.59Q23.67 8.21 23.74 7.64L23.74 7.64L23.74 7.64Q23.82 7.06 23.82 6.37L23.82 6.37L23.82 6.37Q23.82 5.85 23.71 5.42L23.71 5.42L23.71 5.42Q23.60 5.00 23.41 4.70L23.41 4.70L23.41 4.70Q23.22 4.40 22.97 4.23L22.97 4.23L22.97 4.23Q22.72 4.06 22.44 4.06L22.44 4.06L22.44 4.06Q22.22 4.06 22.08 4.13L22.08 4.13L22.08 4.13Q21.94 4.19 21.86 4.29L21.86 4.29L21.86 4.29Q21.79 4.39 21.76 4.50L21.76 4.50L21.76 4.50Q21.72 4.61 21.72 4.72L21.72 4.72ZM28.23 9.08L28.23 8.48L29.47 8.48L29.47 4.59L29.47 4.59Q29.47 4.44 29.44 4.35L29.44 4.35L29.44 4.35Q29.40 4.27 29.34 4.21L29.34 4.21L29.34 4.21Q29.28 4.16 29.19 4.15L29.19 4.15L29.19 4.15Q29.11 4.13 29.00 4.13L29.00 4.13L29.00 4.13Q28.85 4.13 28.63 4.18L28.63 4.18L28.63 4.18Q28.41 4.22 28.16 4.32L28.16 4.32L28.16 4.32Q27.92 4.42 27.67 4.56L27.67 4.56L27.67 4.56Q27.42 4.70 27.22 4.87L27.22 4.87L27.22 4.87Q27.03 5.05 26.91 5.27L26.91 5.27L26.91 5.27Q26.78 5.49 26.78 5.74L26.78 5.74L26.78 5.74Q26.78 5.96 26.84 6.09L26.84 6.09L26.84 6.09Q26.90 6.22 26.97 6.29L26.97 6.29L26.97 6.29Q27.05 6.35 27.13 6.37L27.13 6.37L27.13 6.37Q27.21 6.38 27.24 6.38L27.24 6.38L27.24 6.38Q27.41 6.38 27.52 6.33L27.52 6.33L27.52 6.33Q27.63 6.27 27.72 6.20L27.72 6.20L27.72 6.20Q27.81 6.14 27.89 6.08L27.89 6.08L27.89 6.08Q27.97 6.02 28.07 6.02L28.07 6.02L28.07 6.02Q28.15 6.02 28.24 6.06L28.24 6.06L28.24 6.06Q28.33 6.10 28.41 6.18L28.41 6.18L28.41 6.18Q28.49 6.26 28.55 6.40L28.55 6.40L28.55 6.40Q28.60 6.53 28.60 6.72L28.60 6.72L28.60 6.72Q28.60 6.99 28.50 7.19L28.50 7.19L28.50 7.19Q28.39 7.39 28.22 7.52L28.22 7.52L28.22 7.52Q28.05 7.66 27.84 7.72L27.84 7.72L27.84 7.72Q27.62 7.79 27.41 7.79L27.41 7.79L27.41 7.79Q27.08 7.79 26.82 7.67L26.82 7.67L26.82 7.67Q26.56 7.56 26.37 7.36L26.37 7.36L26.37 7.36Q26.19 7.16 26.09 6.90L26.09 6.90L26.09 6.90Q26.00 6.63 26.00 6.33L26.00 6.33L26.00 6.33Q26.00 5.86 26.17 5.47L26.17 5.47L26.17 5.47Q26.34 5.07 26.64 4.76L26.64 4.76L26.64 4.76Q26.93 4.44 27.33 4.21L27.33 4.21L27.33 4.21Q27.73 3.97 28.20 3.81L28.20 3.81L28.20 3.81Q28.66 3.66 29.17 3.58L29.17 3.58L29.17 3.58Q29.67 3.50 30.18 3.50L30.18 3.50L30.18 3.50Q30.74 3.50 31.05 3.61L31.05 3.61L31.05 3.61Q31.36 3.71 31.51 3.86L31.51 3.86L31.51 3.86Q31.66 4.01 31.68 4.18L31.68 4.18L31.68 4.18Q31.71 4.34 31.71 4.45L31.71 4.45L31.71 8.48L34.23 8.48L34.23 5.20L34.23 5.20Q34.23 4.07 34.52 3.27L34.52 3.27L34.52 3.27Q34.82 2.48 35.28 1.98L35.28 1.98L35.28 1.98Q35.75 1.48 36.32 1.25L36.32 1.25L36.32 1.25Q36.89 1.02 37.46 1.02L37.46 1.02L37.46 1.02Q37.85 1.02 38.20 1.08L38.20 1.08L38.20 1.08Q38.55 1.13 38.82 1.25L38.82 1.25L38.82 1.25Q39.08 1.37 39.24 1.54L39.24 1.54L39.24 1.54Q39.40 1.72 39.40 1.95L39.40 1.95L39.40 1.95Q39.40 2.05 39.36 2.14L39.36 2.14L39.36 2.14Q39.33 2.24 39.28 2.31L39.28 2.31L39.28 2.31Q39.22 2.39 39.15 2.43L39.15 2.43L39.15 2.43Q39.08 2.47 39.01 2.47L39.01 2.47L39.01 2.47Q38.88 2.47 38.79 2.40L38.79 2.40L38.79 2.40Q38.69 2.32 38.61 2.21L38.61 2.21L38.61 2.21Q38.52 2.10 38.44 1.97L38.44 1.97L38.44 1.97Q38.36 1.83 38.25 1.72L38.25 1.72L38.25 1.72Q38.15 1.61 38.02 1.53L38.02 1.53L38.02 1.53Q37.89 1.46 37.71 1.46L37.71 1.46L37.71 1.46Q37.30 1.46 37.05 1.69L37.05 1.69L37.05 1.69Q36.80 1.91 36.67 2.35L36.67 2.35L36.67 2.35Q36.54 2.80 36.51 3.45L36.51 3.45L36.51 3.45Q36.47 4.11 36.47 4.96L36.47 4.96L36.47 8.48L37.84 8.48L37.84 9.08L36.47 9.08L36.47 13.24L36.47 13.24Q36.47 13.44 36.56 13.56L36.56 13.56L36.56 13.56Q36.64 13.68 36.82 13.68L36.82 13.68L36.82 13.68Q37.01 13.68 37.17 13.61L37.17 13.61L37.17 13.61Q37.34 13.54 37.46 13.48L37.46 13.48L37.58 13.73L37.58 13.73Q37.43 13.84 37.23 13.95L37.23 13.95L37.23 13.95Q37.02 14.06 36.78 14.16L36.78 14.16L36.78 14.16Q36.54 14.26 36.26 14.32L36.26 14.32L36.26 14.32Q35.98 14.39 35.68 14.39L35.68 14.39L35.68 14.39Q35.22 14.39 34.93 14.27L34.93 14.27L34.93 14.27Q34.64 14.14 34.49 13.94L34.49 13.94L34.49 13.94Q34.33 13.74 34.28 13.49L34.28 13.49L34.28 13.49Q34.23 13.23 34.23 12.97L34.23 12.97L34.23 9.08L31.71 9.08L31.71 12.49L31.71 12.49Q31.71 13.42 31.37 14.11L31.37 14.11L31.37 14.11Q31.04 14.80 30.45 15.26L30.45 15.26L30.45 15.26Q29.86 15.72 29.06 15.95L29.06 15.95L29.06 15.95Q28.27 16.18 27.36 16.18L27.36 16.18L27.36 16.18Q27.01 16.18 26.69 16.12L26.69 16.12L26.69 16.12Q26.37 16.06 26.12 15.96L26.12 15.96L26.12 15.96Q25.87 15.86 25.73 15.72L25.73 15.72L25.73 15.72Q25.58 15.58 25.58 15.42L25.58 15.42L25.58 15.42Q25.58 15.29 25.61 15.17L25.61 15.17L25.61 15.17Q25.65 15.04 25.72 14.94L25.72 14.94L25.72 14.94Q25.79 14.83 25.88 14.77L25.88 14.77L25.88 14.77Q25.98 14.70 26.11 14.70L26.11 14.70L26.11 14.70Q26.18 14.70 26.24 14.77L26.24 14.77L26.24 14.77Q26.30 14.85 26.36 14.96L26.36 14.96L26.36 14.96Q26.42 15.07 26.50 15.20L26.50 15.20L26.50 15.20Q26.58 15.33 26.70 15.45L26.70 15.45L26.70 15.45Q26.83 15.56 27.01 15.63L27.01 15.63L27.01 15.63Q27.19 15.71 27.45 15.71L27.45 15.71L27.45 15.71Q27.98 15.71 28.36 15.52L28.36 15.52L28.36 15.52Q28.74 15.33 28.98 14.98L28.98 14.98L28.98 14.98Q29.23 14.63 29.35 14.15L29.35 14.15L29.35 14.15Q29.47 13.67 29.47 13.09L29.47 13.09L29.47 9.08L28.23 9.08ZM38.14 6.47L38.14 6.47L38.14 6.47Q38.14 5.67 38.58 5.11L38.58 5.11L38.58 5.11Q39.02 4.55 39.79 4.19L39.79 4.19L39.79 4.19Q40.55 3.83 41.57 3.66L41.57 3.66L41.57 3.66Q42.59 3.50 43.75 3.50L43.75 3.50L43.75 3.50Q44.30 3.50 44.83 3.51L44.83 3.51L44.83 3.51Q45.36 3.52 45.79 3.54L45.79 3.54L45.79 3.54Q46.22 3.56 46.54 3.59L46.54 3.59L46.54 3.59Q46.85 3.62 47.00 3.65L47.00 3.65L47.00 3.65Q47.13 3.68 47.22 3.73L47.22 3.73L47.22 3.73Q47.30 3.77 47.34 3.82L47.34 3.82L47.34 3.82Q47.38 3.88 47.39 3.95L47.39 3.95L47.39 3.95Q47.41 4.02 47.41 4.12L47.41 4.12L47.41 4.12Q47.41 4.20 47.39 4.30L47.39 4.30L47.39 4.30Q47.37 4.40 47.33 4.48L47.33 4.48L47.33 4.48Q47.28 4.57 47.22 4.63L47.22 4.63L47.22 4.63Q47.16 4.69 47.07 4.69L47.07 4.69L47.07 4.69Q47.02 4.69 46.95 4.64L46.95 4.64L46.95 4.64Q46.89 4.59 46.77 4.52L46.77 4.52L46.77 4.52Q46.65 4.44 46.45 4.36L46.45 4.36L46.45 4.36Q46.25 4.28 45.91 4.20L45.91 4.20L45.91 4.20Q45.57 4.13 45.07 4.08L45.07 4.08L45.07 4.08Q44.56 4.03 43.85 4.03L43.85 4.03L43.85 8.42L46.69 8.42L46.69 9.02L43.85 9.02L43.85 11.69L43.85 11.69Q43.85 12.01 43.95 12.24L43.95 12.24L43.95 12.24Q44.04 12.47 44.22 12.62L44.22 12.62L44.22 12.62Q44.40 12.77 44.65 12.84L44.65 12.84L44.65 12.84Q44.90 12.91 45.21 12.91L45.21 12.91L45.21 12.91Q45.55 12.91 45.90 12.83L45.90 12.83L45.90 12.83Q46.25 12.76 46.56 12.65L46.56 12.65L46.56 12.65Q46.87 12.54 47.13 12.41L47.13 12.41L47.13 12.41Q47.39 12.27 47.54 12.14L47.54 12.14L47.81 12.43L47.81 12.43Q47.64 12.57 47.35 12.81L47.35 12.81L47.35 12.81Q47.07 13.04 46.65 13.27L46.65 13.27L46.65 13.27Q46.24 13.49 45.69 13.66L45.69 13.66L45.69 13.66Q45.14 13.83 44.44 13.83L44.44 13.83L44.44 13.83Q44.21 13.83 43.91 13.81L43.91 13.81L43.91 13.81Q43.61 13.78 43.30 13.71L43.30 13.71L43.30 13.71Q42.98 13.64 42.68 13.50L42.68 13.50L42.68 13.50Q42.38 13.36 42.14 13.13L42.14 13.13L42.14 13.13Q41.90 12.89 41.76 12.55L41.76 12.55L41.76 12.55Q41.61 12.22 41.61 11.74L41.61 11.74L41.61 9.02L40.54 9.02L40.54 8.42L41.61 8.42L41.61 4.12L41.61 4.12Q41.39 4.14 41.11 4.19L41.11 4.19L41.11 4.19Q40.82 4.25 40.53 4.36L40.53 4.36L40.53 4.36Q40.23 4.46 39.94 4.61L39.94 4.61L39.94 4.61Q39.66 4.75 39.43 4.94L39.43 4.94L39.43 4.94Q39.20 5.13 39.06 5.37L39.06 5.37L39.06 5.37Q38.92 5.61 38.92 5.88L38.92 5.88L38.92 5.88Q38.92 6.10 38.98 6.23L38.98 6.23L38.98 6.23Q39.04 6.36 39.12 6.42L39.12 6.42L39.12 6.42Q39.19 6.49 39.27 6.50L39.27 6.50L39.27 6.50Q39.35 6.52 39.38 6.52L39.38 6.52L39.38 6.52Q39.55 6.52 39.66 6.46L39.66 6.46L39.66 6.46Q39.77 6.41 39.86 6.34L39.86 6.34L39.86 6.34Q39.95 6.28 40.03 6.22L40.03 6.22L40.03 6.22Q40.11 6.16 40.21 6.16L40.21 6.16L40.21 6.16Q40.29 6.16 40.38 6.20L40.38 6.20L40.38 6.20Q40.48 6.23 40.55 6.32L40.55 6.32L40.55 6.32Q40.63 6.40 40.69 6.53L40.69 6.53L40.69 6.53Q40.74 6.67 40.74 6.86L40.74 6.86L40.74 6.86Q40.74 7.13 40.64 7.33L40.64 7.33L40.64 7.33Q40.53 7.53 40.36 7.66L40.36 7.66L40.36 7.66Q40.20 7.79 39.98 7.86L39.98 7.86L39.98 7.86Q39.76 7.92 39.55 7.92L39.55 7.92L39.55 7.92Q39.22 7.92 38.96 7.81L38.96 7.81L38.96 7.81Q38.70 7.70 38.51 7.50L38.51 7.50L38.51 7.50Q38.33 7.30 38.23 7.04L38.23 7.04L38.23 7.04Q38.14 6.77 38.14 6.47ZM53.29 3.50L53.29 3.50L53.29 3.50Q55.15 3.50 56.13 4.16L56.13 4.16L56.13 4.16Q57.11 4.82 57.11 6.05L57.11 6.05L57.11 6.05Q57.11 6.65 56.97 7.08L56.97 7.08L56.97 7.08Q56.83 7.51 56.58 7.80L56.58 7.80L56.58 7.80Q56.33 8.10 55.98 8.30L55.98 8.30L55.98 8.30Q55.64 8.49 55.23 8.63L55.23 8.63L55.23 8.63Q55.51 8.70 55.80 9.03L55.80 9.03L55.80 9.03Q56.08 9.36 56.38 9.84L56.38 9.84L56.38 9.84Q56.67 10.32 56.97 10.91L56.97 10.91L56.97 10.91Q57.27 11.50 57.58 12.10L57.58 12.10L57.58 12.10Q57.88 12.70 58.19 13.27L58.19 13.27L58.19 13.27Q58.50 13.84 58.81 14.28L58.81 14.28L58.81 14.28Q59.12 14.72 59.44 14.99L59.44 14.99L59.44 14.99Q59.76 15.26 60.07 15.26L60.07 15.26L60.07 15.26Q60.21 15.26 60.34 15.20L60.34 15.20L60.34 15.20Q60.48 15.15 60.55 15.09L60.55 15.09L60.70 15.36L60.70 15.36Q60.56 15.44 60.36 15.53L60.36 15.53L60.36 15.53Q60.16 15.62 59.90 15.70L59.90 15.70L59.90 15.70Q59.63 15.78 59.30 15.84L59.30 15.84L59.30 15.84Q58.97 15.90 58.56 15.90L58.56 15.90L58.56 15.90Q57.90 15.90 57.37 15.53L57.37 15.53L57.37 15.53Q56.83 15.17 56.45 14.51L56.45 14.51L56.45 14.51Q56.06 13.82 55.69 13.07L55.69 13.07L55.69 13.07Q55.31 12.32 54.94 11.57L54.94 11.57L54.94 11.57Q54.56 10.81 54.19 10.10L54.19 10.10L54.19 10.10Q53.82 9.38 53.44 8.75L53.44 8.75L53.50 8.47L53.50 8.47Q53.90 8.57 54.20 8.42L54.20 8.42L54.20 8.42Q54.50 8.27 54.69 7.93L54.69 7.93L54.69 7.93Q54.88 7.59 54.97 7.10L54.97 7.10L54.97 7.10Q55.06 6.61 55.06 6.04L55.06 6.04L55.06 6.04Q55.06 5.63 54.97 5.27L54.97 5.27L54.97 5.27Q54.89 4.91 54.73 4.64L54.73 4.64L54.73 4.64Q54.56 4.37 54.34 4.21L54.34 4.21L54.34 4.21Q54.11 4.06 53.83 4.06L53.83 4.06L53.83 4.06Q53.61 4.06 53.47 4.13L53.47 4.13L53.47 4.13Q53.33 4.19 53.25 4.29L53.25 4.29L53.25 4.29Q53.17 4.39 53.14 4.50L53.14 4.50L53.14 4.50Q53.11 4.61 53.11 4.72L53.11 4.72L53.11 12.82L53.11 12.82Q53.11 13.35 52.83 13.59L52.83 13.59L52.83 13.59Q52.55 13.83 51.99 13.83L51.99 13.83L51.99 13.83Q51.41 13.83 51.14 13.59L51.14 13.59L51.14 13.59Q50.87 13.35 50.87 12.82L50.87 12.82L50.87 4.65L50.87 4.65Q50.87 4.27 50.35 4.27L50.35 4.27L50.35 4.27Q49.97 4.27 49.58 4.39L49.58 4.39L49.58 4.39Q49.20 4.50 48.89 4.69L48.89 4.69L48.89 4.69Q48.58 4.89 48.38 5.16L48.38 5.16L48.38 5.16Q48.18 5.43 48.18 5.74L48.18 5.74L48.18 5.74Q48.18 5.96 48.24 6.09L48.24 6.09L48.24 6.09Q48.30 6.22 48.37 6.29L48.37 6.29L48.37 6.29Q48.45 6.35 48.52 6.37L48.52 6.37L48.52 6.37Q48.60 6.38 48.64 6.38L48.64 6.38L48.64 6.38Q48.81 6.38 48.92 6.33L48.92 6.33L48.92 6.33Q49.03 6.27 49.12 6.20L49.12 6.20L49.12 6.20Q49.21 6.14 49.28 6.08L49.28 6.08L49.28 6.08Q49.36 6.02 49.46 6.02L49.46 6.02L49.46 6.02Q49.55 6.02 49.64 6.06L49.64 6.06L49.64 6.06Q49.73 6.10 49.81 6.18L49.81 6.18L49.81 6.18Q49.89 6.26 49.94 6.40L49.94 6.40L49.94 6.40Q50.00 6.53 50.00 6.72L50.00 6.72L50.00 6.72Q50.00 6.99 49.89 7.19L49.89 7.19L49.89 7.19Q49.79 7.39 49.62 7.52L49.62 7.52L49.62 7.52Q49.45 7.66 49.24 7.72L49.24 7.72L49.24 7.72Q49.02 7.79 48.81 7.79L48.81 7.79L48.81 7.79Q48.48 7.79 48.22 7.67L48.22 7.67L48.22 7.67Q47.95 7.56 47.77 7.36L47.77 7.36L47.77 7.36Q47.58 7.16 47.49 6.90L47.49 6.90L47.49 6.90Q47.39 6.63 47.39 6.33L47.39 6.33L47.39 6.33Q47.39 5.76 47.61 5.33L47.61 5.33L47.61 5.33Q47.82 4.89 48.20 4.58L48.20 4.58L48.20 4.58Q48.59 4.27 49.13 4.06L49.13 4.06L49.13 4.06Q49.67 3.85 50.33 3.73L50.33 3.73L50.33 3.73Q50.98 3.60 51.73 3.55L51.73 3.55L51.73 3.55Q52.48 3.50 53.29 3.50Z"></path></g><!----><g data-v-423bf9ae="" id="dcc31a4f-5d64-49a5-9880-f5183428b709" transform="matrix(11.434376867992954,0,0,11.434376867992954,-6.740716296347465,-3.1094446271762095)" stroke="none" fill="white"><path d="M3.043 2.084l.017.86h.667v.791l.572.856v2.123h3.506v-4.63zm1.256 4.894v1.18l.199.011h2.646a.66.66 0 0 0 .661-.661v-.53z"></path><path d="M1.236 3.142v.53h2.293v-.53zM1.14 3.936l-.446.659h.854l-.404-.66zM1.454 3.936l.405.66 2.206.003-.442-.662zM.663 4.86L.661 8.169h.993V4.861zM1.918 4.86v3.308h2.183V4.863zM3.01 6.117s.264.442.264.567c0 .126-.118.227-.264.227-.146 0-.265-.101-.265-.227 0-.125.265-.567.265-.567z"></path><path d="M6.85.298l-.243.22c.312.351.517.88.484 1.353l.324-.002A2.016 2.016 0 0 0 6.85.298zm-.44.397l-1.317 1.19.94-.006a.132.132 0 0 1 .1-.205.132.132 0 0 1 .015 0 .132.132 0 0 1 .09.04l.064.062a.132.132 0 0 1 .039.1l.487-.002c.032-.381-.155-.88-.417-1.179zm-.055.506a.132.132 0 0 1 .092.041l.062.062a.132.132 0 1 1-.187.187L6.26 1.43a.132.132 0 0 1 .095-.228zm-.399.15v.001a.132.132 0 0 1 .093.228l-.063.062a.132.132 0 1 1-.186-.187l.062-.062a.132.132 0 0 1 .094-.041z"></path><path d="M3.465 1.134a.21.21 0 0 0-.071.015c-.19.078-.263.326-.319.522a1.293 1.293 0 0 0-.035.214h1.795l-.062-.213c-.056-.196-.13-.444-.319-.523-.168-.07-.53.126-.53.126s-.278-.15-.46-.14z"></path><path d="M4.02.626a.132.133 0 0 0-.124.078s-.077.161-.111.301c.016.003.036.006.05.011.051.02.058.026.09.042.042-.02.06-.033.135-.06.002 0 .004 0 .005-.002.03-.082.07-.179.07-.179a.132.133 0 0 0-.115-.19z" style="line-height:normal;text-indent:0;text-align:start;text-decoration-line:none;text-decoration-style:solid;text-decoration-color:#000;text-transform:none;isolation:auto;mix-blend-mode:normal" color="#000" font-weight="400" font-family="sans-serif" white-space="normal" overflow="visible"></path></g><!----><g data-v-423bf9ae="" id="8dc887e2-5fa8-44a6-a27b-29359588983a" fill="white" transform="matrix(3.3735654800698978,0,0,3.3735654800698978,103.50157319169493,55.73665975500294)"><path d="M4.82 5.50L4.82 5.50Q5.27 4.74 5.48 3.53L5.48 3.53L5.48 3.53Q5.71 2.15 5.22 1.57L5.22 1.57L5.22 1.57Q4.93 1.22 4.18 1.27L4.18 1.27L4.18 1.27Q3.24 1.33 2.34 1.85L2.34 1.85L2.34 1.85Q1.09 2.59 0.49 4.34L0.49 4.34L0.49 4.34Q-0.13 6.10 0.49 7.18L0.49 7.18L0.49 7.18Q0.78 7.68 2.15 8.17L2.15 8.17L2.15 8.17Q2.72 8.37 2.93 8.48L2.93 8.48L2.93 8.48Q3.36 8.74 3.45 9.11L3.45 9.11L3.45 9.11Q3.55 9.50 3.21 10.17L3.21 10.17L3.21 10.17Q3.03 10.51 2.75 10.76L2.75 10.76L2.75 10.76Q2.63 10.87 2.47 10.97L2.47 10.97L2.47 10.97Q2.40 11.02 2.38 11.03L2.38 11.03L2.38 11.03Q2.32 11.07 2.26 11.09L2.26 11.09L2.26 11.09Q2.35 11.05 2.23 11.10L2.23 11.10L2.23 11.10Q2.24 11.10 2.30 11.09L2.30 11.09L2.30 11.09Q2.26 11.09 2.21 11.09L2.21 11.09L2.21 11.09Q2.20 11.10 2.11 11.09L2.11 11.09L2.11 11.09Q2.06 11.09 1.91 11.05L1.91 11.05L1.91 11.05Q1.55 10.97 1.25 10.64L1.25 10.64L1.25 10.64Q1.03 10.39 0.94 9.93L0.94 9.93L0.94 9.93Q0.84 9.44 1.07 9.28L1.07 9.28L1.07 9.28Q1.26 9.13 1.24 9.06L1.24 9.06L1.24 9.06Q1.22 8.97 0.98 8.96L0.98 8.96L0.98 8.96Q0.36 8.95-0.05 9.24L-0.05 9.24L-0.05 9.24Q-0.44 9.53-0.51 9.86L-0.51 9.86L-0.51 9.86Q-0.59 10.20-0.44 10.62L-0.44 10.62L-0.44 10.62Q-0.16 11.36 0.70 11.61L0.70 11.61L0.70 11.61Q1.59 11.87 2.86 11.37L2.86 11.37L2.86 11.37Q3.88 10.96 4.44 10.24L4.44 10.24L4.44 10.24Q4.82 9.76 4.91 9.24L4.91 9.24L4.91 9.24Q5.01 8.62 4.63 8.23L4.63 8.23L4.63 8.23Q4.36 7.96 3.80 7.75L3.80 7.75L3.80 7.75Q3.65 7.70 3.34 7.59L3.34 7.59L3.34 7.59Q3.04 7.50 2.91 7.44L2.91 7.44L2.91 7.44Q2.38 7.23 2.10 6.97L2.10 6.97L2.10 6.97Q1.80 6.69 1.70 5.96L1.70 5.96L1.70 5.96Q1.50 4.53 2.45 2.97L2.45 2.97L2.45 2.97Q2.86 2.29 3.37 1.95L3.37 1.95L3.37 1.95Q3.42 1.91 3.51 1.86L3.51 1.86L3.51 1.86Q3.51 1.86 3.56 1.84L3.56 1.84L3.56 1.84Q3.55 1.84 3.59 1.83L3.59 1.83L3.59 1.83Q3.56 1.84 3.60 1.83L3.60 1.83L3.60 1.83Q3.53 1.85 3.45 1.85L3.45 1.85L3.45 1.85Q3.47 1.85 3.46 1.85L3.46 1.85L3.48 1.85L3.48 1.85Q3.53 1.86 3.62 1.89L3.62 1.89L3.62 1.89Q3.63 1.89 3.73 1.96L3.73 1.96L3.73 1.96Q3.79 2.01 3.83 2.06L3.83 2.06L3.83 2.06Q3.95 2.20 4.02 2.45L4.02 2.45L4.02 2.45Q4.14 2.84 4.07 3.49L4.07 3.49L4.07 3.49Q3.95 4.81 3.38 5.76L3.38 5.76L3.38 5.76Q3.29 5.90 3.60 5.91L3.60 5.91L3.60 5.91Q3.79 5.92 3.96 5.89L3.96 5.89L3.96 5.89Q4.66 5.76 4.82 5.50L4.82 5.50ZM16.91 2.35L16.91 2.35Q15.96 2.17 14.95 2.15L14.95 2.15L14.95 2.15Q14.85 2.03 14.38 2.11L14.38 2.11L14.38 2.11Q14.28 2.13 14.16 2.16L14.16 2.16L14.16 2.16Q13.10 2.22 12.06 2.46L12.06 2.46L12.06 2.46Q11.32 2.63 11.39 2.88L11.39 2.88L11.39 2.88Q11.44 3.08 12.16 2.91L12.16 2.91L12.16 2.91Q12.17 2.91 12.18 2.90L12.18 2.90L12.18 2.90Q12.20 2.90 12.21 2.89L12.21 2.89L12.21 2.89Q12.28 2.88 12.44 2.85L12.44 2.85L12.44 2.85Q12.61 2.82 12.83 2.80L12.83 2.80L12.83 2.80Q13.12 2.76 13.45 2.75L13.45 2.75L13.45 2.75Q12.03 7.40 11.63 10.96L11.63 10.96L11.63 10.96Q11.63 11.02 11.85 11.03L11.85 11.03L11.85 11.03Q12.07 11.04 12.35 10.99L12.35 10.99L12.35 10.99Q13.07 10.86 13.10 10.56L13.10 10.56L13.10 10.56Q13.47 7.19 14.79 2.78L14.79 2.78L14.79 2.78Q15.26 2.82 15.70 2.91L15.70 2.91L15.70 2.91Q16.14 2.99 16.73 2.72L16.73 2.72L16.73 2.72Q16.88 2.65 16.98 2.54L16.98 2.54L16.98 2.54Q17.12 2.39 16.91 2.35L16.91 2.35ZM25.86 5.20L25.86 5.20Q25.74 6.64 25.47 7.92L25.47 7.92L25.47 7.92Q25.06 9.88 24.29 10.64L24.29 10.64L24.29 10.64Q24.20 10.55 24.12 10.38L24.12 10.38L24.12 10.38Q23.94 9.97 23.95 9.03L23.95 9.03L23.95 9.03Q23.98 7.34 24.55 5.48L24.55 5.48L24.55 5.48Q25.05 3.85 25.75 3.01L25.75 3.01L25.75 3.01Q25.83 3.25 25.87 3.62L25.87 3.62L25.87 3.62Q25.94 4.21 25.86 5.20L25.86 5.20ZM26.79 1.96L26.79 1.96Q26.58 1.79 25.85 2.05L25.85 2.05L25.85 2.05Q25.35 2.24 25.37 2.39L25.37 2.39L25.37 2.39Q25.12 2.48 24.94 2.63L24.94 2.63L24.94 2.63Q23.95 3.40 23.29 5.22L23.29 5.22L23.29 5.22Q22.74 6.70 22.55 8.50L22.55 8.50L22.55 8.50Q22.47 9.28 22.50 9.92L22.50 9.92L22.50 9.92Q22.54 10.77 22.90 11.13L22.90 11.13L22.90 11.13Q23.08 11.31 23.52 11.33L23.52 11.33L23.52 11.33Q24.06 11.36 24.88 11.02L24.88 11.02L24.88 11.02Q25.57 10.74 26.09 9.94L26.09 9.94L26.09 9.94Q26.56 9.21 26.87 7.85L26.87 7.85L26.87 7.85Q27.08 6.94 27.21 5.84L27.21 5.84L27.21 5.84Q27.37 4.44 27.37 3.78L27.37 3.78L27.37 3.78Q27.36 2.45 26.79 1.96L26.79 1.96ZM38.11 5.31L38.11 5.31Q37.96 6.24 37.06 7.18L37.06 7.18L37.06 7.18Q36.87 7.38 36.63 7.58L36.63 7.58L36.63 7.58Q36.57 7.63 36.51 7.68L36.51 7.68L36.51 7.68Q36.29 7.59 36.04 7.58L36.04 7.58L36.04 7.58Q36.60 4.74 36.74 2.66L36.74 2.66L36.74 2.66Q37.01 2.80 37.25 2.99L37.25 2.99L37.25 2.99Q37.76 3.39 37.99 4.03L37.99 4.03L37.99 4.03Q38.22 4.65 38.11 5.31L38.11 5.31ZM35.14 2.40L35.14 2.40Q35.14 2.40 35.15 2.39L35.15 2.39L35.15 2.39Q35.14 2.40 35.14 2.40L35.14 2.40ZM40.07 11.42L40.07 11.42Q39.34 10.88 37.81 8.99L37.81 8.99L37.81 8.99Q37.14 8.17 37.02 8.05L37.02 8.05L37.02 8.05Q37.48 7.84 37.91 7.50L37.91 7.50L37.91 7.50Q39.12 6.56 39.47 5.41L39.47 5.41L39.47 5.41Q39.72 4.60 39.51 3.84L39.51 3.84L39.51 3.84Q39.30 3.07 38.68 2.53L38.68 2.53L38.68 2.53Q37.43 1.46 35.36 1.88L35.36 1.88L35.36 1.88Q35.23 1.91 35.03 1.96L35.03 1.96L35.03 1.96Q34.30 2.14 34.36 2.37L34.36 2.37L34.36 2.37Q34.42 2.58 35.13 2.40L35.13 2.40L35.13 2.40Q35.20 2.39 35.25 2.38L35.25 2.38L35.25 2.38Q35.29 2.37 35.32 2.37L35.32 2.37L35.32 2.37Q35.21 5.11 33.97 10.79L33.97 10.79L33.97 10.79Q33.91 11.04 34.55 10.92L34.55 10.92L34.55 10.92Q34.86 10.87 35.11 10.75L35.11 10.75L35.11 10.75Q35.39 10.62 35.41 10.53L35.41 10.53L35.41 10.53Q35.70 9.17 35.80 8.72L35.80 8.72L35.80 8.72Q35.81 8.72 35.81 8.72L35.81 8.72L35.81 8.72Q35.81 8.72 35.81 8.72L35.81 8.72L35.81 8.72Q35.92 8.85 36.61 9.70L36.61 9.70L36.61 9.70Q37.93 11.34 38.69 11.92L38.69 11.92L38.69 11.92Q38.92 12.09 39.63 11.83L39.63 11.83L39.63 11.83Q39.82 11.76 39.96 11.67L39.96 11.67L39.96 11.67Q40.21 11.52 40.07 11.42L40.07 11.42ZM51.17 1.42L51.17 1.42Q50.46 1.19 49.27 1.57L49.27 1.57L49.27 1.57Q47.76 2.06 47.20 3.77L47.20 3.77L47.20 3.77Q46.85 4.83 47.03 6.11L47.03 6.11L47.03 6.11Q47.12 6.76 47.39 7.16L47.39 7.16L47.39 7.16Q46.97 7.38 46.68 7.70L46.68 7.70L46.68 7.70Q45.68 8.80 45.79 10.01L45.79 10.01L45.79 10.01Q45.86 10.70 46.33 11.11L46.33 11.11L46.33 11.11Q46.73 11.44 47.56 11.42L47.56 11.42L47.56 11.42Q48.39 11.39 49.10 10.95L49.10 10.95L49.10 10.95Q49.85 10.49 50.15 9.76L50.15 9.76L50.15 9.76Q50.21 9.61 49.93 9.60L49.93 9.60L49.93 9.60Q49.76 9.59 49.57 9.63L49.57 9.63L49.57 9.63Q48.82 9.76 48.71 10.02L48.71 10.02L48.71 10.02Q48.51 10.51 48.17 10.80L48.17 10.80L48.17 10.80Q48.15 10.81 48.14 10.82L48.14 10.82L48.14 10.82Q48.09 10.81 48.08 10.81L48.08 10.81L48.08 10.81Q48.02 10.79 47.93 10.75L47.93 10.75L47.93 10.75Q47.77 10.68 47.61 10.52L47.61 10.52L47.61 10.52Q47.33 10.23 47.25 9.63L47.25 9.63L47.25 9.63Q47.15 8.83 47.78 7.86L47.78 7.86L47.78 7.86Q47.87 7.74 47.97 7.62L47.97 7.62L47.97 7.62Q48.18 7.70 48.45 7.72L48.45 7.72L48.45 7.72Q48.86 7.74 49.35 7.51L49.35 7.51L49.35 7.51Q49.77 7.32 49.62 7.18L49.62 7.18L49.62 7.18Q49.33 6.90 48.90 6.84L48.90 6.84L48.90 6.84Q48.86 6.79 48.83 6.75L48.83 6.75L48.83 6.75Q48.62 6.45 48.51 5.89L48.51 5.89L48.51 5.89Q48.32 4.89 48.51 4.00L48.51 4.00L48.51 4.00Q48.77 2.70 49.54 2.04L49.54 2.04L49.54 2.04Q49.59 2.00 49.69 1.93L49.69 1.93L49.69 1.93Q49.70 1.93 49.70 1.93L49.70 1.93L49.70 1.93Q49.83 1.94 49.81 1.93L49.81 1.93L49.81 1.93Q50.39 2.02 50.27 2.62L50.27 2.62L50.27 2.62Q50.22 2.86 50.85 2.75L50.85 2.75L50.85 2.75Q51.16 2.69 51.41 2.58L51.41 2.58L51.41 2.58Q51.69 2.45 51.71 2.36L51.71 2.36L51.71 2.36Q51.85 1.63 51.17 1.42L51.17 1.42Z"></path></g></svg>